<svg width="175" height="24" viewBox="0 0 175 24" fill="none" xmlns="http://www.w3.org/2000/svg">
<path d="M5.804 24C3.98 24 2.66 23.58 1.844 22.74C1.028 21.876 0.62 20.7 0.62 19.212C0.62 17.652 1.04 16.452 1.88 15.612C2.744 14.772 4.052 14.352 5.804 14.352H7.64C9.44 14.352 11.06 14.4 12.5 14.496C13.94 14.592 15.128 14.688 16.064 14.784V12.408C16.064 12.192 16.04 11.976 15.992 11.76C15.944 11.52 15.8 11.328 15.56 11.184C15.32 11.04 14.912 10.968 14.336 10.968H12.536C9.92 10.968 7.736 11.016 5.984 11.112C4.232 11.184 3.044 11.256 2.42 11.328L2.024 8.592C2.024 8.256 2.936 8.052 4.76 7.98C6.584 7.908 9.632 7.872 13.904 7.872H15.704C16.904 7.872 17.828 8.04 18.476 8.376C19.124 8.712 19.58 9.132 19.844 9.636C20.132 10.14 20.3 10.656 20.348 11.184C20.42 11.688 20.456 12.12 20.456 12.48V24H17.504L16.1 23.28C15.092 23.448 13.88 23.616 12.464 23.784C11.048 23.928 9.428 24 7.604 24H5.804ZM6.74 20.904H14.984C15.512 20.904 15.824 20.856 15.92 20.76C16.016 20.664 16.064 20.364 16.064 19.86V17.088H6.74C6.092 17.088 5.636 17.244 5.372 17.556C5.132 17.868 5.012 18.36 5.012 19.032C5.012 19.704 5.156 20.184 5.444 20.472C5.732 20.76 6.164 20.904 6.74 20.904ZM24.6092 24V1.176H29.0012V8.304C30.0332 8.184 31.2452 8.088 32.6372 8.016C34.0532 7.92 35.6612 7.872 37.4612 7.872H39.2972C40.4972 7.872 41.4212 8.028 42.0692 8.34C42.7172 8.652 43.1732 9.048 43.4372 9.528C43.7252 10.008 43.8932 10.512 43.9412 11.04C44.0132 11.568 44.0492 12.048 44.0492 12.48V19.392C44.0492 19.752 44.0132 20.196 43.9412 20.724C43.8932 21.228 43.7252 21.732 43.4372 22.236C43.1732 22.74 42.7172 23.16 42.0692 23.496C41.4212 23.832 40.4972 24 39.2972 24H37.4612C35.4692 24 33.7292 23.952 32.2412 23.856C30.7532 23.736 29.5172 23.616 28.5332 23.496L27.5612 24H24.6092ZM30.1172 20.904H37.9292C39.0812 20.904 39.6572 20.424 39.6572 19.464V12.408C39.6812 11.88 39.5732 11.508 39.3332 11.292C39.0932 11.076 38.6252 10.968 37.9292 10.968H36.1292C34.5932 10.968 33.2252 11.004 32.0252 11.076C30.8492 11.124 29.8412 11.184 29.0012 11.256V19.788C29.0012 20.292 29.0492 20.604 29.1452 20.724C29.2652 20.844 29.5892 20.904 30.1172 20.904ZM52.6673 24C50.8433 24 49.5233 23.58 48.7073 22.74C47.8913 21.876 47.4833 20.7 47.4833 19.212C47.4833 17.652 47.9033 16.452 48.7433 15.612C49.6073 14.772 50.9153 14.352 52.6673 14.352H54.5033C56.3033 14.352 57.9233 14.4 59.3633 14.496C60.8033 14.592 61.9913 14.688 62.9273 14.784V12.408C62.9273 12.192 62.9033 11.976 62.8553 11.76C62.8073 11.52 62.6633 11.328 62.4233 11.184C62.1833 11.04 61.7753 10.968 61.1993 10.968H59.3993C56.7833 10.968 54.5993 11.016 52.8473 11.112C51.0953 11.184 49.9073 11.256 49.2833 11.328L48.8873 8.592C48.8873 8.256 49.7993 8.052 51.6233 7.98C53.4473 7.908 56.4953 7.872 60.7673 7.872H62.5673C63.7673 7.872 64.6913 8.04 65.3393 8.376C65.9873 8.712 66.4433 9.132 66.7073 9.636C66.9953 10.14 67.1633 10.656 67.2113 11.184C67.2833 11.688 67.3193 12.12 67.3193 12.48V24H64.3673L62.9633 23.28C61.9553 23.448 60.7433 23.616 59.3273 23.784C57.9113 23.928 56.2913 24 54.4673 24H52.6673ZM53.6033 20.904H61.8473C62.3753 20.904 62.6873 20.856 62.7833 20.76C62.8793 20.664 62.9273 20.364 62.9273 19.86V17.088H53.6033C52.9553 17.088 52.4993 17.244 52.2353 17.556C51.9953 17.868 51.8753 18.36 51.8753 19.032C51.8753 19.704 52.0193 20.184 52.3073 20.472C52.5953 20.76 53.0273 20.904 53.6033 20.904ZM75.8645 24C74.6645 24 73.7405 23.844 73.0925 23.532C72.4445 23.22 71.9765 22.824 71.6885 22.344C71.4245 21.864 71.2565 21.36 71.1845 20.832C71.1365 20.304 71.1125 19.824 71.1125 19.392V12.48C71.1125 12.12 71.1365 11.688 71.1845 11.184C71.2565 10.656 71.4245 10.14 71.6885 9.636C71.9765 9.132 72.4445 8.712 73.0925 8.376C73.7645 8.04 74.6885 7.872 75.8645 7.872H77.7005C79.9085 7.872 81.6845 7.92 83.0285 8.016C84.3965 8.088 85.4405 8.172 86.1605 8.268V1.176H90.5525V24H87.6005L86.1965 23.28C85.1885 23.448 83.9765 23.616 82.5605 23.784C81.1445 23.928 79.5125 24 77.6645 24H75.8645ZM77.2325 20.904H85.0445C85.5485 20.904 85.8605 20.844 85.9805 20.724C86.1005 20.604 86.1605 20.304 86.1605 19.824V11.22C85.3445 11.172 84.3125 11.124 83.0645 11.076C81.8165 11.004 80.4845 10.968 79.0685 10.968H77.2325C76.0805 10.968 75.5045 11.448 75.5045 12.408V19.464C75.5045 20.424 76.0805 20.904 77.2325 20.904ZM101.502 24C99.6781 24 98.4301 23.616 97.7581 22.848C97.0861 22.08 96.7501 20.928 96.7501 19.392V10.968H93.7981V7.872H95.3101C95.7661 7.872 96.0901 7.8 96.2821 7.656C96.4981 7.512 96.6541 7.224 96.7501 6.792L97.4701 2.94H101.142V7.872H108.63V10.968H101.142V19.428C101.142 20.028 101.286 20.424 101.574 20.616C101.862 20.808 102.294 20.904 102.87 20.904H107.946L108.306 23.64C107.802 23.712 107.034 23.796 106.002 23.892C104.97 23.964 103.842 24 102.618 24H101.502ZM115.907 24C114.707 24 113.783 23.844 113.135 23.532C112.487 23.22 112.019 22.824 111.731 22.344C111.467 21.864 111.299 21.36 111.227 20.832C111.179 20.304 111.155 19.824 111.155 19.392V12.48C111.155 12.12 111.179 11.688 111.227 11.184C111.299 10.656 111.467 10.14 111.731 9.636C112.019 9.132 112.487 8.712 113.135 8.376C113.807 8.04 114.731 7.872 115.907 7.872H123.647C125.231 7.872 126.467 8.028 127.355 8.34C128.267 8.628 128.903 9.108 129.263 9.78C129.647 10.452 129.839 11.352 129.839 12.48V17.808H123.539C121.379 17.808 119.615 17.76 118.247 17.664C116.903 17.568 116.003 17.508 115.547 17.484V19.464C115.523 20.424 116.099 20.904 117.275 20.904H119.111C120.407 20.904 121.667 20.892 122.891 20.868C124.139 20.82 125.279 20.772 126.311 20.724C127.343 20.652 128.171 20.592 128.795 20.544L130.235 22.884C130.235 23.628 127.871 24 123.143 24H115.907ZM115.547 14.712H125.447V12.408C125.447 11.928 125.387 11.592 125.267 11.4C125.171 11.208 124.859 11.088 124.331 11.04C123.803 10.992 122.903 10.968 121.631 10.968H117.275C116.123 10.968 115.547 11.448 115.547 12.408V14.712ZM138.232 24C137.032 24 136.108 23.844 135.46 23.532C134.812 23.22 134.344 22.824 134.056 22.344C133.792 21.864 133.624 21.36 133.552 20.832C133.504 20.304 133.48 19.824 133.48 19.392V12.48C133.48 12.12 133.504 11.688 133.552 11.184C133.624 10.656 133.792 10.14 134.056 9.636C134.344 9.132 134.812 8.712 135.46 8.376C136.132 8.04 137.056 7.872 138.232 7.872H143.236C146.236 7.872 148.36 7.956 149.608 8.124C150.88 8.268 151.516 8.424 151.516 8.592L150.796 11.328C150.124 11.28 149.272 11.232 148.24 11.184C147.208 11.112 146.092 11.064 144.892 11.04C143.716 10.992 142.564 10.968 141.436 10.968H139.6C138.448 10.968 137.872 11.448 137.872 12.408V19.464C137.848 20.424 138.424 20.904 139.6 20.904H141.436C142.732 20.904 143.992 20.892 145.216 20.868C146.464 20.82 147.604 20.772 148.636 20.724C149.668 20.652 150.496 20.592 151.12 20.544L152.56 22.884C152.56 23.628 150.196 24 145.468 24H138.232ZM155.074 24V0.672H159.466V8.592C160.474 8.4 161.686 8.232 163.102 8.088C164.518 7.944 166.138 7.872 167.962 7.872H169.762C170.962 7.872 171.886 8.04 172.534 8.376C173.182 8.712 173.638 9.132 173.902 9.636C174.19 10.14 174.358 10.656 174.406 11.184C174.478 11.688 174.514 12.12 174.514 12.48V24H170.122V12.408C170.122 11.448 169.546 10.968 168.394 10.968H160.546C160.09 10.968 159.79 11.016 159.646 11.112C159.526 11.184 159.466 11.4 159.466 11.76V24H155.074Z" fill="#202647"/>
</svg>
